<?xml version="1.0" encoding="utf-8"?>
<!-- Generator: Adobe Illustrator 27.5.0, SVG Export Plug-In . SVG Version: 6.00 Build 0)  -->
<svg version="1.1" id="Layer_5" xmlns="http://www.w3.org/2000/svg" xmlns:xlink="http://www.w3.org/1999/xlink" x="0px" y="0px"
	 viewBox="0 0 1200 1200" style="enable-background:new 0 0 1200 1200;" xml:space="preserve">
<style type="text/css">
	.st0{fill:#0C00FF;}
</style>
<path class="st0" d="M916.5,459.3V298.6C916.5,141.9,792,14.5,639,14.5H517.3c-153,0-277.6,127.5-277.6,284.2v161.2
	c-52.5,9.6-92.6,54.9-92.6,109v505.9c0,61,51,110.9,113.3,110.9H899c62.3,0,113.3-49.9,113.3-110.9V568.8
	C1012.3,513.6,970.6,467.6,916.5,459.3z M632.4,837.5v126.4c0,20.6-17.2,37.5-38.3,37.5h-9.6c-21.1,0-38.3-16.9-38.3-37.5V839.4
	c-42.9-16-73.4-56.7-73.4-104.3c0-61.7,51.1-111.6,114.1-111.6c63,0,114.1,50,114.1,111.6C701,780.9,672.8,820.3,632.4,837.5z
	 M823.8,457.9H332.5V298.6c0-105,82.9-190.5,184.8-190.5H639c101.9,0,184.8,85.5,184.8,190.5V457.9z"/>
</svg>
