<svg id="Ebene_1" data-name="Ebene 1" xmlns="http://www.w3.org/2000/svg" viewBox="0 0 412.22 412.22"><defs><style>.cls-1{fill:#fff;}.cls-2{fill:#0c00ff;}</style></defs><rect class="cls-1" width="412.22" height="412.22" rx="133.52"/><path class="cls-2" d="M290.86,338.07c-15.88,9.94-40.53,18.49-79.5,18.49C135.5,356.56,78.8,304.1,78.8,223c0-86.43,58.92-147.3,146.74-147.3,68.84,0,128,39.39,128,116.75,0,58.68-30.55,95.73-77.35,95.73-19.49,0-33.71-6.88-36.8-22.42C228.18,280.31,215.69,288,194.25,288c-27.7,0-47.78-19.58-47.78-57.76,0-49.4,30.88-88.14,68.73-88.14,22.25,0,33,10.56,36.37,21.46l4.91-18.15h36.35l-19.62,89.93c-3.91,18.12,0,23.65,11.06,23.65,21.27,0,37.53-26.17,37.53-65.17,0-55.53-39.1-90-96.89-90-67.22,0-112.12,44.86-112.22,119.45-.1,57.92,39,103.84,100.36,103.84,27.77,0,50.2-4.24,70.78-15.1ZM185.4,228.81c0,19.2,6.82,29.7,20.1,29.7,16.2,0,28.28-11.52,35-42.36,7.22-31.84.23-45.61-19.14-45.61C198.85,170.54,185.4,200.62,185.4,228.81Z" transform="translate(-10.04 -10.04)"/></svg>