<?xml version="1.0" encoding="utf-8"?>
<!-- Generator: Adobe Illustrator 27.5.0, SVG Export Plug-In . SVG Version: 6.00 Build 0)  -->
<svg version="1.1" id="Ebene_1" xmlns="http://www.w3.org/2000/svg" xmlns:xlink="http://www.w3.org/1999/xlink" x="0px" y="0px"
	 viewBox="0 0 256 256" style="enable-background:new 0 0 256 256;" xml:space="preserve">
<style type="text/css">
	.st0{fill:#0C00FF;}
</style>
<g transform="translate(1.4065934065934016 1.4065934065934016) scale(2.81 2.81)">
	<path class="st0" d="M45,90C20.2,90,0,69.8,0,45S20.2,0,45,0s45,20.2,45,45S69.8,90,45,90z M45,4C22.4,4,4,22.4,4,45s18.4,41,41,41
		s41-18.4,41-41S67.6,4,45,4z"/>
	<circle class="st0" cx="30.3" cy="33.3" r="5.9"/>
	<circle class="st0" cx="59.7" cy="33.3" r="5.9"/>
	<path class="st0" d="M72.2,65.5c-0.4,0-0.9-0.1-1.3-0.5c-7.3-6-16.5-9.2-25.9-9.2c-9.4,0-18.6,3.3-25.9,9.2
		c-0.9,0.7-2.1,0.6-2.8-0.3c-0.7-0.9-0.6-2.1,0.3-2.8c8-6.5,18.1-10.1,28.4-10.1s20.4,3.6,28.4,10.1c0.9,0.7,1,2,0.3,2.8
		C73.3,65.2,72.8,65.5,72.2,65.5z"/>
</g>
</svg>
