<?xml version="1.0" encoding="utf-8"?>
<!-- Generator: Adobe Illustrator 25.0.0, SVG Export Plug-In . SVG Version: 6.00 Build 0)  -->
<svg version="1.1" id="Ebene_1" xmlns="http://www.w3.org/2000/svg" xmlns:xlink="http://www.w3.org/1999/xlink" x="0px" y="0px"
	 viewBox="0 0 1000 1000" style="enable-background:new 0 0 1000 1000;" xml:space="preserve">
<style type="text/css">
	.st0{fill:#707070;}
</style>
<g>
	<path class="st0" d="M810.7,0H189.3C84.8,0,0,84.8,0,189.3v621.3C0,915.2,84.8,1000,189.3,1000h621.3
		c104.6,0,189.3-84.8,189.3-189.3V189.3C1000,84.8,915.2,0,810.7,0z M504.3,696.9h-76.4c-5,0-7.5-1.2-9.3-5
		C388.8,641,358.4,589.4,327.9,536h-0.6c-28,52.2-57.1,105-86.3,155.9c-1.9,3.7-3.7,5-7.5,5h-72.7c-4.3,0-4.3-3.7-2.5-6.2
		l121.7-198.8L160.8,294.4c-1.9-3.1,0-5.6,3.1-5.6h75.8c3.7,0,5.6,0.6,7.5,4.3c27.3,51.6,58.4,102.5,86.3,154h0.6
		c27.3-51.6,56.5-102.5,85.1-153.4c1.2-3.1,3.1-5,7.5-5h69.6c3.7,0,4.3,2.5,2.5,6.2L381.4,486.9l125.5,203.7
		C509.3,693.8,507.5,696.3,504.3,696.9z M795.1,678.9c-40.4,17.4-80.1,24.2-117.4,24.2c-90.1,0-159-52.2-159-156.5
		c0-90.1,67.1-162.1,176.4-162.1c8.7,0,16.1,0.6,26.7,1.9V259c0-3.1,1.2-4.3,3.7-4.3h67.7c3.1,0,3.1,1.2,3.1,3.7v375.2
		c0,12.4,1.2,28.6,2.5,39.8C798.8,676.4,798.2,677.6,795.1,678.9z"/>
	<path class="st0" d="M595.7,542.8c0,67.7,40.4,95.7,90.1,95.7c12.4,0,24.8-1.2,36-5v-182c-8.1-3.1-18-4.3-29.2-4.3
		C637.3,447.2,595.7,482.6,595.7,542.8z"/>
</g>
</svg>
