<?xml version="1.0" encoding="utf-8"?>
<!-- Generator: Adobe Illustrator 25.0.0, SVG Export Plug-In . SVG Version: 6.00 Build 0)  -->
<svg version="1.1" xmlns="http://www.w3.org/2000/svg" xmlns:xlink="http://www.w3.org/1999/xlink" x="0px" y="0px"
	 viewBox="0 0 800 563.44" style="enable-background:new 0 0 800 563.44;" xml:space="preserve">
<style type="text/css">
	.st0{display:none;}
	.st1{display:inline;}
	.st2{fill:#FFFFFF;}
	.st3{fill:#EAB80F;}
	.st4{fill:url(#SVGID_1_);}
	.st5{fill:url(#SVGID_2_);}
	.st6{fill:url(#SVGID_3_);}
	.st7{fill:url(#SVGID_4_);}
	.st8{fill:url(#SVGID_5_);}
	.st9{fill:#D4D4D4;}
	.st10{fill:url(#SVGID_6_);}
	.st11{fill:url(#SVGID_7_);}
	.st12{fill:url(#SVGID_8_);}
	.st13{fill:url(#SVGID_9_);}
	.st14{fill:url(#SVGID_10_);}
	.st15{fill:#7C7C7B;}
	.st16{fill:url(#SVGID_11_);}
	.st17{fill:url(#SVGID_12_);}
	.st18{fill:url(#SVGID_13_);}
	.st19{fill:url(#SVGID_14_);}
	.st20{fill:url(#SVGID_15_);}
	.st21{fill:#868786;}
	.st22{fill:#757777;}
	.st23{fill:#D9B225;}
</style>
<g id="bg" class="st0">
</g>
<g id="_x33_0-jahre">
	<g>
		<path class="st15" d="M620.4,393.72c-5.93-9.5-13.97-16.79-24.13-21.87c-10.16-5.08-21.54-7.62-34.14-7.62h-38.94h-10.44h-33.86
			v199.21h44.3v-72.52h38.94c12.6,0,23.98-2.58,34.14-7.76c10.16-5.17,18.2-12.51,24.13-22.01c5.92-9.5,8.89-20.74,8.89-33.72
			S626.32,403.22,620.4,393.72z M581.32,443.24c-2.64,4.33-6.21,7.62-10.72,9.88c-4.51,2.26-9.5,3.39-14.95,3.39h-32.45v-57.84
			h32.45c5.45,0,10.44,1.13,14.95,3.39c4.51,2.26,8.09,5.55,10.72,9.88c2.63,4.33,3.95,9.5,3.95,15.52
			C585.27,433.64,583.95,438.91,581.32,443.24z"/>
		<path class="st15" d="M786.32,469.48c-4.73-5.06-10.48-9.24-17.25-12.54c4.8-2.67,8.91-5.83,12.31-9.47
			c7.9-8.46,11.85-18.81,11.85-31.04c0-9.59-2.35-18.34-7.05-26.24c-4.7-7.9-11.52-14.2-20.46-18.91c-8.94-4.7-19.8-7.05-32.59-7.05
			h-41.76h-9.88h-33.86v199.21h33.86h9.88h41.2c14.11,0,26.19-2.54,36.26-7.62c10.06-5.08,17.78-11.99,23.14-20.74
			c5.36-8.75,8.04-18.57,8.04-29.49C800,491.3,795.44,479.26,786.32,469.48z M724.66,398.66c7.34,0,13.26,1.84,17.78,5.5
			s6.77,9.17,6.77,16.51c0,7.53-2.26,13.12-6.77,16.79c-4.51,3.67-10.44,5.5-17.78,5.5h-33.3v-44.3H724.66z M748.65,521.4
			c-4.89,5.08-11.67,7.62-20.32,7.62h-36.96v-52.48h36.96c5.83,0,10.77,1.13,14.81,3.38c4.04,2.26,7.2,5.36,9.45,9.31
			c2.26,3.95,3.39,8.46,3.39,13.54C755.98,510.11,753.54,516.32,748.65,521.4z"/>
		<g>
			<path class="st3" d="M518.28,312.75c0,2.97-0.48,5.53-1.45,7.68s-2.38,3.92-4.23,5.31c-1.86,1.39-4.13,2.41-6.82,3.08
				s-5.76,0.99-9.21,0.99c-1.63,0-3.3-0.08-5.01-0.24s-3.36-0.36-4.95-0.6c-1.58-0.24-3.04-0.49-4.38-0.76s-2.45-0.53-3.34-0.76
				v-10.48c0.91,0.37,1.91,0.74,2.99,1.12c1.08,0.38,2.29,0.72,3.63,1.03c1.33,0.3,2.81,0.55,4.43,0.75c1.62,0.2,3.4,0.29,5.35,0.29
				c2.11,0,3.86-0.23,5.26-0.7c1.4-0.47,2.52-1.12,3.37-1.95c0.85-0.84,1.44-1.82,1.79-2.95s0.52-2.37,0.52-3.71v-26.27h12.04
				V312.75z"/>
			<path class="st3" d="M567.88,320.82h-24.93l-4.2,8.46h-13.48l23.4-44.72h13.48l23.4,44.72h-13.48L567.88,320.82z M547.28,312.1
				h16.34l-8.14-16.47L547.28,312.1z"/>
			<path class="st3" d="M635.68,329.29v-18.65h-30.73v18.65h-12.08v-44.72h12.08v16.27h30.73v-16.27h12.08v44.72H635.68z"/>
			<path class="st3" d="M673.83,329.29h-12.08v-44.72h30.27c3.25,0,6.02,0.34,8.28,1.01c2.27,0.67,4.11,1.63,5.53,2.86
				s2.45,2.73,3.09,4.48c0.64,1.75,0.96,3.69,0.96,5.84c0,1.89-0.27,3.54-0.8,4.95s-1.25,2.62-2.15,3.63s-1.95,1.86-3.14,2.56
				c-1.19,0.69-2.45,1.27-3.78,1.73l14.65,17.67h-14.13l-13.54-16.47h-13.18V329.29z M697.69,298.69c0-0.87-0.11-1.61-0.34-2.21
				c-0.23-0.61-0.62-1.1-1.19-1.48c-0.56-0.38-1.32-0.66-2.26-0.83c-0.94-0.17-2.12-0.26-3.53-0.26h-16.54v9.57h16.54
				c1.41,0,2.59-0.09,3.53-0.26c0.94-0.17,1.7-0.45,2.26-0.83c0.56-0.38,0.96-0.87,1.19-1.48
				C697.58,300.29,697.69,299.56,697.69,298.69z"/>
			<path class="st3" d="M723.34,329.29v-44.72h45.28v9.54h-32.87v7.39h31.18v9.54h-31.18v8.72h33.33v9.54H723.34z"/>
		</g>
		<linearGradient id="SVGID_1_" gradientUnits="userSpaceOnUse" x1="151.0439" y1="0" x2="151.0439" y2="222.1552">
			<stop  offset="0" style="stop-color:#FFC215"/>
			<stop  offset="0.514" style="stop-color:#FDC114"/>
			<stop  offset="0.6989" style="stop-color:#F6BE13"/>
			<stop  offset="0.8305" style="stop-color:#EBB80F"/>
			<stop  offset="0.8352" style="stop-color:#EAB80F"/>
			<stop  offset="0.8976" style="stop-color:#E7B611"/>
			<stop  offset="0.9365" style="stop-color:#DFAE16"/>
			<stop  offset="0.969" style="stop-color:#D0A21F"/>
			<stop  offset="0.9978" style="stop-color:#BC902C"/>
			<stop  offset="1" style="stop-color:#BA8E2D"/>
		</linearGradient>
		<path class="st4" d="M86.66,178.28v35.29c7.01-2.06,14.24-3.61,21.67-4.64c7.43-1.03,14.86-1.55,22.29-1.55
			c19.81,0,36.93,3.51,51.38,10.52c2.68,1.3,5.22,2.75,7.68,4.26c10.11-13,21.7-23.96,34.79-32.86c1.54-1.04,3.08-2.05,4.64-3.03
			c-0.95-0.59-1.87-1.23-2.85-1.8c-18.37-10.73-39.1-16.1-62.21-16.1c-0.1,0-0.2,0.01-0.3,0.01L281.66,34.66V0H20.43v52h177.21
			L86.66,178.28z"/>
		<linearGradient id="SVGID_2_" gradientUnits="userSpaceOnUse" x1="143.3059" y1="435.7996" x2="143.3059" y2="221.9657">
			<stop  offset="0" style="stop-color:#FFC215"/>
			<stop  offset="0.2876" style="stop-color:#FBC014"/>
			<stop  offset="0.5961" style="stop-color:#EEBA10"/>
			<stop  offset="0.662" style="stop-color:#EAB80F"/>
			<stop  offset="0.7688" style="stop-color:#DFAE16"/>
			<stop  offset="0.9558" style="stop-color:#C29528"/>
			<stop  offset="1" style="stop-color:#BA8E2D"/>
		</linearGradient>
		<path class="st5" d="M274.74,354.9c0.61-1.33,1.18-2.68,1.74-4.04c0.63-1.54,1.25-3.08,1.82-4.64c0.56-1.54,1.08-3.1,1.59-4.67
			c0.21-0.65,0.41-1.3,0.6-1.95c1.74-5.71,3.11-11.6,4.1-17.68c0,0,0,0,0,0l0,0c1.29-7.96,2.02-16.2,2.02-24.79
			c0-25.58-5.47-48.07-16.4-67.48c-1.5-2.65-3.08-5.2-4.71-7.69c-5.53,2.49-10.86,5.5-15.92,9.18
			c-10.65,7.74-19.66,18.04-27.11,30.77c3.53,9.68,5.34,20.37,5.34,32.12c0,9.99-1.38,19.27-4.05,27.89l0,0
			c-0.46,1.49-0.97,2.97-1.51,4.42c-0.08,0.22-0.16,0.43-0.25,0.65c-0.49,1.28-1.01,2.55-1.56,3.8c-0.26,0.58-0.53,1.14-0.8,1.71
			c-0.44,0.93-0.87,1.87-1.35,2.79c-0.81,1.54-1.65,3.07-2.56,4.56c-1.07,1.76-2.2,3.46-3.37,5.11c-0.17,0.24-0.36,0.47-0.54,0.71
			c-1.05,1.44-2.12,2.85-3.25,4.2c-0.1,0.12-0.2,0.22-0.29,0.34c-1.24,1.48-2.53,2.91-3.87,4.29c0,0-0.01,0.01-0.01,0.01
			c-1.42,1.46-2.88,2.86-4.4,4.21c-5.1,4.53-10.77,8.48-17.07,11.77c-10.4,5.44-22.26,8.82-35.58,10.17l0,0
			c-4.39,0.44-8.93,0.67-13.64,0.67c-20.23,0-38.59-4.23-55.1-12.69c-16.51-8.45-29.51-19.91-39-34.36L0,373.9
			c15.68,20.22,34.97,35.59,57.88,46.12c22.9,10.52,48.38,15.79,76.45,15.79c3.65,0,7.23-0.09,10.77-0.27
			c22.39-1.09,42.59-5.65,60.63-13.64l0,0c2.66-1.18,5.28-2.41,7.84-3.73c22.69-11.76,40.55-28.06,53.55-48.9
			c1.42-2.27,2.73-4.6,3.99-6.94c0.41-0.76,0.8-1.53,1.2-2.3C273.15,358.33,273.97,356.62,274.74,354.9z"/>
		<linearGradient id="SVGID_3_" gradientUnits="userSpaceOnUse" x1="412.2693" y1="518.909" x2="183.2562" y2="386.6882">
			<stop  offset="0" style="stop-color:#BA8E2D"/>
			<stop  offset="0.3575" style="stop-color:#FFC215"/>
			<stop  offset="0.8017" style="stop-color:#FFC215"/>
			<stop  offset="0.8461" style="stop-color:#FABE17"/>
			<stop  offset="0.897" style="stop-color:#ECB41B"/>
			<stop  offset="0.9507" style="stop-color:#D6A323"/>
			<stop  offset="1" style="stop-color:#BA8E2D"/>
		</linearGradient>
		<path class="st6" d="M402.83,415.87c-2.16,11-5.05,21.17-8.74,30.39c-8.93,22.32-21.12,39.16-36.55,50.5
			c-15.44,11.35-33.39,17.02-53.85,17.02c-20.46,0-38.5-5.67-54.13-17.02c-15.62-11.34-27.81-28.18-36.55-50.5
			c-2.94-7.52-5.35-15.67-7.3-24.37c-15.19,6.73-31.93,11-50.2,12.84c3.27,12.26,7.45,23.83,12.58,34.69
			c14.13,29.95,33.2,53.11,57.2,69.47c24,16.37,50.5,24.55,79.52,24.55c28.64,0,54.77-8.09,78.4-24.27
			c23.62-16.18,42.41-39.24,56.36-69.19c7.66-16.43,13.2-34.48,16.65-54.1H402.83z"/>
		<g>
			<linearGradient id="SVGID_4_" gradientUnits="userSpaceOnUse" x1="375.8897" y1="184.7696" x2="233.9334" y2="430.6452">
				<stop  offset="0" style="stop-color:#FFC215"/>
				<stop  offset="0.8017" style="stop-color:#FFC215"/>
				<stop  offset="0.8461" style="stop-color:#FABE17"/>
				<stop  offset="0.897" style="stop-color:#ECB41B"/>
				<stop  offset="0.9507" style="stop-color:#D6A323"/>
				<stop  offset="1" style="stop-color:#BA8E2D"/>
			</linearGradient>
			<path class="st7" d="M394.1,281.37c5.65,14.02,9.5,30.17,11.58,48.44h53.02c-2.89-26.65-9.25-50.53-19.12-71.6
				c-13.95-29.76-32.83-52.73-56.64-68.91c-23.81-16.18-50.41-24.27-79.79-24.27c-26.8,0-51.48,7.08-74.04,21.24
				c-1.56,0.98-3.1,1.98-4.64,3.03c-1.57,1.07-3.12,2.17-4.64,3.3c-0.44,0.33-0.88,0.67-1.32,1.01c-1.09,0.82-2.17,1.64-3.23,2.5
				c-0.47,0.38-0.94,0.77-1.41,1.16c-1.02,0.84-2.04,1.68-3.05,2.55c-0.44,0.39-0.88,0.78-1.32,1.17c-1.02,0.91-2.04,1.82-3.04,2.76
				c-0.39,0.37-0.78,0.74-1.17,1.11c-1.05,1-2.09,2.02-3.11,3.06c-0.32,0.33-0.64,0.65-0.96,0.98c-1.09,1.13-2.17,2.27-3.24,3.44
				c-0.24,0.26-0.48,0.53-0.73,0.79c-1.16,1.29-2.3,2.59-3.42,3.93c-0.14,0.17-0.28,0.33-0.42,0.49c-1.26,1.51-2.51,3.05-3.73,4.62
				c-8.28,10.65-15.57,22.66-21.85,36.05c-13.95,29.77-20.93,64.92-20.93,105.46c0,5.77,0.16,11.43,0.45,16.98
				c13.31-1.35,25.17-4.73,35.58-10.17c6.3-3.29,11.97-7.23,17.07-11.77c0.43-30.53,4.73-56.36,13.03-77.36
				c2.78-7.05,5.96-13.49,9.44-19.45c0,0,0,0,0,0c2.62-4.47,5.43-8.64,8.44-12.5c0.34-0.44,0.69-0.89,1.04-1.32
				c0.84-1.05,1.7-2.08,2.57-3.08c0.86-0.99,1.74-1.93,2.63-2.87c0.84-0.89,1.69-1.76,2.56-2.6c1.1-1.07,2.21-2.12,3.35-3.13
				c0.51-0.45,1.03-0.9,1.55-1.34c1.62-1.37,3.26-2.69,4.97-3.93c1.61-1.17,3.26-2.25,4.92-3.29c0.76-0.48,1.52-0.94,2.29-1.39
				c0.68-0.4,1.37-0.77,2.05-1.15c2.18-1.21,4.4-2.33,6.66-3.34c0,0,0,0,0,0c11.54-5.18,24.07-7.84,37.64-7.84
				c20.45,0,38.5,5.68,54.12,17.02C372.89,242.5,385.17,259.24,394.1,281.37z"/>
		</g>
		<linearGradient id="SVGID_5_" gradientUnits="userSpaceOnUse" x1="479.6502" y1="381.4431" x2="305.8734" y2="381.4431">
			<stop  offset="0" style="stop-color:#7C7C7B"/>
			<stop  offset="0.0331" style="stop-color:#817F76"/>
			<stop  offset="0.3411" style="stop-color:#AE974A"/>
			<stop  offset="0.6159" style="stop-color:#CFA92A"/>
			<stop  offset="0.8449" style="stop-color:#E3B416"/>
			<stop  offset="1" style="stop-color:#EAB80F"/>
		</linearGradient>
		<polygon class="st8" points="476.97,364.23 476.97,364.23 305.87,364.23 305.87,398.66 476.97,398.66 479.65,398.66 
			479.65,364.23 		"/>
	</g>
</g>
<g id="gpb-logo" class="st0">
	<g class="st1">
		<rect x="532.81" y="107.86" class="st9" width="51.48" height="51.48"/>
		<rect x="586.73" y="107.85" class="st9" width="51.48" height="51.48"/>
		<rect x="532.81" y="53.94" class="st21" width="51.48" height="51.48"/>
		<rect x="532.81" y="53.94" class="st22" width="51.48" height="51.48"/>
		<rect x="478.89" y="53.94" class="st22" width="51.48" height="51.48"/>
		<rect x="640.7" y="53.94" class="st9" width="51.48" height="51.48"/>
		<rect x="586.73" y="53.94" class="st22" width="51.48" height="51.48"/>
		<rect x="640.7" y="107.86" class="st22" width="159.3" height="51.48"/>
		<rect x="640.67" y="161.77" class="st9" width="51.48" height="51.48"/>
		<rect x="586.73" y="0.02" class="st9" width="51.48" height="51.48"/>
		<g id="_x34_c__x28_5N_simuliert_x29__00000106129916520329958350000008797721480347560865_">
			<path class="st23" d="M526.34,58.11l-2.89,13.38h-1.17c-0.16-3.9-1.04-6.7-2.63-8.42c-1.59-1.71-3.82-2.57-6.69-2.57
				c-2.95,0-5.91,1.04-8.86,3.12c-2.95,2.08-5.47,5.29-7.55,9.63c-2.08,4.34-3.12,8.9-3.12,13.68c0,4.1,0.92,7.24,2.77,9.4
				c1.85,2.16,4.01,3.25,6.49,3.25c1.05,0,2.32-0.3,3.82-0.89l3.2-11.01c0.53-1.85,0.8-3.06,0.8-3.63c0-0.76-0.32-1.4-0.97-1.92
				c-0.65-0.52-1.76-0.78-3.34-0.78l0.31-1.17h18l-0.28,1.17c-1.07,0.06-1.9,0.26-2.51,0.6c-0.61,0.34-1.08,0.84-1.43,1.49
				c-0.21,0.39-0.52,1.4-0.95,3.02l-3.78,12.83c-4.31,1.64-8.84,2.46-13.6,2.46c-3.67,0-6.79-0.67-9.37-2
				c-2.57-1.33-4.71-3.45-6.4-6.34c-1.69-2.89-2.54-6.18-2.54-9.88c0-7.88,3.5-14.37,10.49-19.48c5.48-3.96,11.69-5.94,18.65-5.94
				c1.21,0,2.33,0.06,3.35,0.18c0.76,0.1,2.09,0.39,4,0.86c1.23,0.31,2.07,0.46,2.52,0.46c0.9,0,1.75-0.5,2.55-1.51H526.34z"/>
			<path class="st23" d="M556.51,81.62l-3.38,11.63c-0.47,1.64-0.71,2.8-0.71,3.48c0,0.94,0.31,1.66,0.92,2.14
				c0.62,0.48,2.01,0.74,4.18,0.78l-0.4,1.14h-20.37l0.34-1.14c1.72-0.02,2.94-0.19,3.66-0.51c0.72-0.32,1.31-0.84,1.78-1.55
				c0.35-0.47,0.87-1.92,1.57-4.34l7.72-26.49c0.53-1.76,0.8-3.03,0.8-3.78c0-0.76-0.34-1.4-1.02-1.92
				c-0.68-0.52-1.91-0.8-3.69-0.85l0.34-1.14h16.52c4.53,0,7.79,0.57,9.78,1.72c3.08,1.81,4.62,4.51,4.62,8.12
				c0,3.49-1.53,6.56-4.6,9.21c-3.07,2.66-7.19,3.98-12.38,3.98C560.64,82.11,558.75,81.95,556.51,81.62z M557.13,79.25
				c1.33,0.16,2.44,0.25,3.32,0.25c2.83,0,5.06-1.29,6.68-3.88c1.62-2.58,2.43-5.28,2.43-8.09c0-1.91-0.52-3.39-1.57-4.45
				c-1.05-1.06-2.49-1.58-4.34-1.58c-0.39,0-0.87,0.02-1.45,0.06L557.13,79.25z"/>
			<path class="st23" d="M602,59.07h16.49c3.67,0,6.3,0.2,7.88,0.58c2.07,0.49,3.68,1.45,4.82,2.88c1.14,1.43,1.71,3.04,1.71,4.85
				c0,1.48-0.45,2.98-1.35,4.52c-0.9,1.54-2.25,2.81-4.05,3.8c-1.8,1-4.55,1.91-8.26,2.75c3.86,1.09,6.53,2.48,8.03,4.18
				c1.5,1.7,2.25,3.68,2.25,5.94c0,2.11-0.74,4.2-2.22,6.26c-1.48,2.06-3.44,3.57-5.88,4.52c-2.44,0.95-6.91,1.43-13.41,1.43h-17.35
				l0.4-1.14c1.68,0,2.89-0.15,3.62-0.46c0.73-0.31,1.31-0.78,1.75-1.43c0.44-0.65,0.96-1.99,1.55-4.05l7.45-25.66
				c0.76-2.6,1.14-4.35,1.14-5.23c0-0.72-0.3-1.31-0.91-1.78c-0.61-0.47-1.92-0.75-3.95-0.83L602,59.07z M610.71,79.81l-5.32,18.55
				c1.03,0.04,1.79,0.06,2.31,0.06c4.57,0,7.75-1.28,9.54-3.83c1.78-2.55,2.68-5.29,2.68-8.2c0-1.39-0.34-2.63-1.03-3.71
				c-0.69-1.08-1.57-1.83-2.66-2.25C615.13,80.02,613.29,79.81,610.71,79.81z M611.45,77.5c2.79-0.04,4.99-0.48,6.6-1.32
				c1.61-0.84,2.9-2.22,3.88-4.14c0.97-1.92,1.46-3.73,1.46-5.43c0-1.6-0.5-2.9-1.51-3.91c-1.01-1-2.35-1.49-4.03-1.45l-1.69,0.06
				L611.45,77.5z"/>
		</g>
	</g>
</g>
</svg>
