<?xml version="1.0" encoding="utf-8"?>
<!-- Generator: Adobe Illustrator 25.0.0, SVG Export Plug-In . SVG Version: 6.00 Build 0)  -->
<svg version="1.1" id="Ebene_1" xmlns="http://www.w3.org/2000/svg" xmlns:xlink="http://www.w3.org/1999/xlink" x="0px" y="0px"
	 viewBox="0 0 1000 1000" style="enable-background:new 0 0 1000 1000;" xml:space="preserve">
<style type="text/css">
	.st0{fill:#707070;}
</style>
<g>
	<path class="st0" d="M695,444.1c-42.9,0-62.1,32.9-67.1,63.4h92.6c23.6,0,31.7,0,34.2-0.6c0-1.9,0-4.3,0-5
		C754.7,483.8,742.2,444.1,695,444.1z"/>
	<path class="st0" d="M339.1,350.9c-9.9,41.6-34.8,114.3-53.4,170.8h108.7c-13-41-42.2-127.3-54.7-170.8H339.1z"/>
	<path class="st0" d="M810.7,0H189.3C84.8,0,0,84.8,0,189.3v621.3C0,915.2,84.8,1000,189.3,1000h621.3
		c104.6,0,189.3-84.8,189.3-189.3V189.3C1000,84.8,915.2,0,810.7,0z M526.1,696.9h-69.6c-3.1,0-5-1.2-6.2-3.7l-36-103.7H265.8
		l-34.2,102.5c-1.2,3.7-3.1,5-6.8,5h-62.1c-3.7,0-5-1.9-4.3-6.2l128-364c2.5-6.2,4.3-12.4,5.6-33.5c0-2.5,1.2-4.3,3.7-4.3H382
		c3.1,0,3.7,0.6,4.3,3.7l143.5,398.8C530.4,695,529.8,696.9,526.1,696.9z M823,554c-0.6,2.5-1.9,3.7-5,4.3c-8.7,1.9-33.5,2.5-64,2.5
		H628c1.9,43.5,30.4,78.3,93.8,78.3c28,0,53.4-5,77-14.9c1.9-1.2,3.7-0.6,3.7,2.5v51.6c0,3.7-1.2,5.6-3.7,6.8
		c-23.6,11.2-50.9,18-93.2,18c-113.1,0-153.4-79.5-153.4-155.9c0-86.3,52.2-162.7,146-162.7c91.9,0,127.3,72.1,127.3,131.1
		C825.5,532.9,824.9,547.2,823,554z"/>
</g>
</svg>
