<?xml version="1.0" encoding="utf-8"?>
<!-- Generator: Adobe Illustrator 25.0.0, SVG Export Plug-In . SVG Version: 6.00 Build 0)  -->
<svg version="1.1" id="Ebene_1" xmlns="http://www.w3.org/2000/svg" xmlns:xlink="http://www.w3.org/1999/xlink" x="0px" y="0px"
	 viewBox="0 0 1000 1000" style="enable-background:new 0 0 1000 1000;" xml:space="preserve">
<style type="text/css">
	.st0{fill:#707070;}
</style>
<g>
	<path class="st0" d="M416.2,350.9c-9.9,41.6-34.8,114.3-53.4,170.8h108.7c-13-41-42.2-127.3-54.7-170.8H416.2z"/>
	<path class="st0" d="M810.7,0H189.3C84.8,0,0,84.8,0,189.3v621.3C0,915.2,84.8,1000,189.3,1000h621.3
		c104.6,0,189.3-84.8,189.3-189.3V189.3C1000,84.8,915.2,0,810.7,0z M603.1,696.9h-69.6c-3.1,0-5-1.2-6.2-3.7l-36-103.7H342.9
		l-34.2,102.5c-1.2,3.7-3.1,5-6.8,5h-62.1c-3.7,0-5-1.9-4.3-6.2l128-364c2.5-6.2,4.3-12.4,5.6-33.5c0-2.5,1.2-4.3,3.7-4.3H459
		c3.1,0,3.7,0.6,4.3,3.7l143.5,398.8C607.5,695,606.9,696.9,603.1,696.9z M728,691.9c0,3.7-1.2,5-5.6,5h-64c-4.3,0-6.2-1.9-6.2-5.6
		V395c0-3.1,1.9-4.3,5-4.3H723c3.7,0,5,0.6,5,4.3V691.9z M690.1,349c-25.5,0-42.2-17.4-42.2-42.9c0-25.5,18-42.9,42.9-42.9
		c26.7,0,42.2,18,42.2,42.9C732.9,331.6,716.2,349,690.1,349z"/>
</g>
</svg>
