<?xml version="1.0" encoding="utf-8"?>
<!-- Generator: Adobe Illustrator 25.0.0, SVG Export Plug-In . SVG Version: 6.00 Build 0)  -->
<svg version="1.1" xmlns="http://www.w3.org/2000/svg" xmlns:xlink="http://www.w3.org/1999/xlink" x="0px" y="0px"
	 viewBox="0 0 220 220" style="enable-background:new 0 0 220 220;" xml:space="preserve">
<style type="text/css">
	.st0{fill:#FF001F;}
	.st1{fill:#666666;}
	.st2{fill:#CB484B;}
	.st3{fill:#6B2328;}
</style>
<g id="Ebene_1">
	<g>
		<g>
			<path class="st1" d="M79.53,211.46h-8.49v-17.85h8.29c3.65,0,5.89,1.81,5.89,4.62v0.05c0,2.01-1.07,3.14-2.35,3.85
				c2.07,0.79,3.34,1.99,3.34,4.39v0.05C86.21,209.83,83.56,211.46,79.53,211.46z M81.31,198.89c0-1.17-0.92-1.84-2.58-1.84h-3.88
				v3.77h3.62c1.73,0,2.83-0.56,2.83-1.89V198.89z M82.31,206.03c0-1.2-0.89-1.94-2.91-1.94h-4.54v3.93h4.67
				c1.73,0,2.78-0.61,2.78-1.94V206.03z"/>
			<path class="st1" d="M89.71,211.46v-17.85h3.93v14.28h8.9v3.57H89.71z"/>
			<path class="st1" d="M105.75,211.46v-17.85h13.47v3.49h-9.56v3.62h8.42v3.49h-8.42v3.75h9.69v3.49H105.75z"/>
			<path class="st1" d="M135.62,211.46l-8.65-11.35v11.35h-3.88v-17.85h3.62l8.37,10.99v-10.99h3.88v17.85H135.62z"/>
			<path class="st1" d="M150.46,211.46h-6.96v-17.85h6.96c5.61,0,9.49,3.85,9.49,8.88v0.05
				C159.95,207.56,156.08,211.46,150.46,211.46z M155.85,202.54c0-3.16-2.17-5.38-5.38-5.38h-3.03v10.76h3.03
				c3.21,0,5.38-2.17,5.38-5.33V202.54z"/>
		</g>
		<g>
			<path class="st2" d="M53.94,185.38c-4.9,0-7.92-2.24-10.1-4.84v4.23h-9.19v-44.14h9.19v16.38c2.24-3.02,5.32-5.26,10.1-5.26
				c7.56,0,14.75,5.93,14.75,16.75v0.12C68.7,179.45,61.62,185.38,53.94,185.38z M59.51,168.51c0-5.38-3.63-8.95-7.92-8.95
				c-4.29,0-7.86,3.57-7.86,8.95v0.12c0,5.38,3.57,8.95,7.86,8.95c4.29,0,7.92-3.51,7.92-8.95V168.51z"/>
			<path class="st2" d="M106.18,171.77H83.63c0.91,4.17,3.81,6.35,7.92,6.35c3.08,0,5.32-0.97,7.86-3.33l5.26,4.66
				c-3.02,3.75-7.37,6.05-13.24,6.05c-9.73,0-16.93-6.83-16.93-16.75v-0.12c0-9.25,6.59-16.87,16.02-16.87
				c10.82,0,15.78,8.4,15.78,17.59v0.12C106.3,170.38,106.24,170.93,106.18,171.77z M90.52,159.14c-3.81,0-6.29,2.72-7.01,6.89
				h13.84C96.81,161.92,94.39,159.14,90.52,159.14z"/>
			<path class="st2" d="M132.79,161.38c-6.11,0-9.85,3.69-9.85,11.43v11.97h-9.19v-32.41h9.19v6.53c1.87-4.47,4.9-7.38,10.34-7.13
				v9.61H132.79z"/>
			<path class="st2" d="M158.66,161.38c-6.11,0-9.85,3.69-9.85,11.43v11.97h-9.19v-32.41h9.19v6.53c1.87-4.47,4.9-7.38,10.34-7.13
				v9.61H158.66z"/>
			<path class="st2" d="M183.88,185.56c-2.48,6.59-5.14,9.07-10.64,9.07c-3.33,0-5.8-0.85-8.16-2.24l3.08-6.65
				c1.21,0.73,2.72,1.27,3.93,1.27c1.57,0,2.42-0.48,3.2-2.12l-12.7-32.53h9.73l7.38,22.07l7.07-22.07h9.55L183.88,185.56z"/>
		</g>
		<path class="st2" d="M133.22,90.96c-0.27-10.13-2.2-14.14-6.29-21.98c-3.28-6.3-7.95-9.62-7.95-9.62s-2.27,1.13-4.48,5.44
			c-3.38,0.69-6.47,2.99-8.14,6.15c-1.76,3.35-2.02,7.45-0.74,11.42c-3.37,2.62-5.52,6.67-5.68,10.85
			c-0.15,3.98,1.46,7.96,4.35,10.84c-1.55,5.97,1.44,12.74,6.92,15.7c0.95,5.19,4.13,9.73,9.75,11.11
			c0.27,0.07,3.14-3.76,5.84-10.83C131.11,108.77,133.47,100.44,133.22,90.96z"/>
		<path class="st1" d="M189.21,59.01c-0.41-0.48-1.14-1.01-2.4-1.02c-1.25,0.03-2.37,0.73-3.29,1.41c-0.74,0.54-1.42,1.23-2.17,2.15
			c-0.34,0.42-0.65,0.88-0.95,1.35c-1.42-1.65-3.01-3.14-4.77-4.44c0.8-1.91,1.55-3.81,2.25-5.67c0.43-1.13,0.84-2.27,1.24-3.42
			l0.07-0.2c0.37-1.04,1.14-3.2-0.82-4.55c-1.21-0.83-2.58-0.65-3.58-0.52c-0.16,0.02-0.32,0.04-0.47,0.06l-3.8,0.39
			c-0.54,0.06-1.09,0.1-1.64,0.15c-1.7,0.15-3.45,0.3-5.18,0.69c-0.33,0.08-0.66,0.16-0.97,0.25c0.8-3,1.51-5.79,2.15-8.46
			c0.88-3.68-1.19-5.02-2.12-5.43c-1.94-0.85-4.21-0.21-5.64,1.59c-0.99,1.23-1.48,2.76-1.92,4.12c-0.11,0.35-0.22,0.69-0.34,1.02
			c-0.34,0.95-0.68,1.91-1.01,2.87c-3.08-3.34-5.67-7.09-7.69-11.16c-0.38-0.77-1.08-1.26-1.91-1.36c-0.88-0.11-1.79,0.29-2.37,1
			c-3.64,4.48-3.96,10.2-3.49,15.88c-0.5-0.06-1.05-0.11-1.65-0.16c-1.72-0.15-3.45-0.29-5.18-0.43l-1.81-0.14
			c-0.25-1.43-0.46-2.85-0.63-4.25c-0.03-0.25-0.05-0.52-0.08-0.79c-0.17-1.88-0.4-4.45-2.75-5.67c-1.23-0.64-2.69-0.27-3.39,0.87
			c-2.55,4.14-3.31,9.51-2.14,15.1c0.32,1.52,0.78,2.93,1.4,4.23c-1.02,0.34-1.99,0.84-2.88,1.48c-0.2-0.16-0.39-0.33-0.59-0.49
			c-3.52-2.78-7.73-4.66-12.51-5.58c-0.71-0.14-1.44-0.26-2.17-0.37c3.35-8.64,4.22-17.98,2.52-27.14
			c-0.45-2.42-1.01-4.98-2.02-7.31c-1.23-2.83-4.03-4.07-7.33-3.25c-1.89,0.47-3.86,1.4-6.19,2.93c-1.91,1.25-3.65,2.72-5.18,4.37
			c-2.29,2.46-4.13,5.31-5.42,8.36c-3.24-4.31-7.55-7.9-12.38-10.28c-1.52-0.75-3.08-1.38-4.65-1.89c-1.87-0.6-4.06-1.12-6.15-0.39
			c-1.69,0.59-3.09,1.92-4.05,3.85c-0.88,1.78-1.47,3.64-1.94,5.23c-1.45,4.98-1.92,10.08-1.38,14.88
			c-4.24-0.78-8.68-0.74-12.94,0.12c-2.41,0.49-4.82,1.27-7.16,2.33C27.85,42.16,25,43.45,24,46.24c-1.08,2.99,0.74,5.74,2.06,7.75
			l0.06,0.08c1.2,1.83,2.57,3.59,4.07,5.25c2.97,3.28,6.43,6.11,10.29,8.41c3.6,2.14,7.44,3.75,11.43,4.78
			c-3.99,7.09-5,15.92-2.83,25c1.98,8.32,6.57,16.14,13.63,23.23c5.57,5.59,12.56,10.74,21.99,16.22
			c5.24,3.04,12.49,6.62,20.19,6.62c2.39,0,4.82-0.34,7.24-1.15c4.23-1.41,7.84-4.31,10.46-8.37c1.49,0.22,2.98,0.22,4.46-0.03
			l0.02,0c0,0,0,0,0,0c0.1,0.11,0.19,0.2,0.27,0.29c0.68,0.65,1.39,1.21,2.13,1.69c2.2,1.41,4.73,2.15,7.22,2.15
			c0.91,0,1.82-0.1,2.71-0.3c3.17-0.73,5.97-2.76,7.66-5.53c7.85,0.44,15.09-4.61,17.44-12.13c4.09-1.3,7.32-3.65,9.16-6.67
			c1.71-2.82,2.23-6.12,1.47-9.09c3.53-2.13,6.04-5.81,6.66-9.89c0.51-3.35-0.31-6.93-2.21-9.81c2.36-2.95,3.07-7.1,1.83-10.66
			c0.63-0.26,1.24-0.57,1.82-0.91c3.43-2,5.9-5.39,6.6-9.07C190.11,62.56,190.37,60.37,189.21,59.01z M186.87,63.52
			c-0.55,2.84-2.48,5.47-5.17,7.05c-0.88,0.51-1.82,0.92-2.8,1.2l-2.47,0.72l1.79,1.74c1.5,3.04,0.82,6.95-1.63,9.31l-0.99,0.95
			l0.86,1.07c1.92,2.39,2.8,5.57,2.35,8.52c-0.54,3.54-2.9,6.71-6.15,8.26l-1.27,0.61l0.52,1.31c0.96,2.39,0.65,5.27-0.83,7.7
			c-1.55,2.54-4.42,4.51-8.1,5.55l-0.03,0.01c-0.01,0-0.02,0.01-0.03,0.01l0.03-0.01l-0.9,0.19l-0.23,0.9
			c-1.76,6.84-8.33,11.4-15.35,10.66l-1.09-0.24l-0.52,1.05c-1.2,2.43-3.5,4.24-6.14,4.85c-2.52,0.58-5.26-0.02-7.64-1.45
			c-1.31-0.78-3.38-2.65-3.38-2.65s-0.91,0.19-1.07,0.22l-0.1,0.02c-0.78,0.13-1.73,0.18-2.31,0.14l-3.25-0.33
			c0,0-1.06,1.78-1.45,2.35c-2.1,3.17-5.01,5.23-8.36,6.35c-9.1,3.04-18.61-1.52-24.97-5.21c-9.2-5.34-15.99-10.34-21.37-15.74
			c-6.67-6.69-10.99-14.03-12.84-21.81c-2.08-8.73-0.99-17.16,3.06-23.73c0.16-0.25,0.31-0.5,0.48-0.74l1.22-1.85l-2.17-0.45
			c-4.4-0.91-8.63-2.56-12.56-4.9c-3.6-2.14-6.83-4.78-9.6-7.84c-1.39-1.54-2.67-3.19-3.79-4.89l-0.06-0.09
			c-1.08-1.64-2.31-3.5-1.74-5.08c0.53-1.47,2.26-2.36,4.15-3.21c2.14-0.96,4.33-1.68,6.52-2.12c2.04-0.41,4.13-0.62,6.21-0.62
			c2.5,0,5,0.3,7.41,0.89l2.53,1.27l-0.53-2.95c-0.9-4.97-0.55-10.4,0.99-15.7c0.42-1.46,0.96-3.17,1.74-4.74
			c0.61-1.23,1.4-2.03,2.35-2.36c1.25-0.44,2.85-0.04,4.24,0.41c1.43,0.46,2.85,1.04,4.25,1.73c5.24,2.58,9.8,6.71,12.85,11.65
			l1.77,2.86l0.95-3.22c1.08-3.68,3.07-7.14,5.75-10.02c1.37-1.47,2.92-2.78,4.63-3.9c2.01-1.32,3.73-2.15,5.27-2.53
			c1.08-0.27,3-0.42,3.85,1.53c0.89,2.05,1.4,4.42,1.82,6.67c1.71,9.22,0.65,18.63-3.07,27.22l-0.8,1.85l2,0.24
			c1.33,0.16,2.64,0.36,3.91,0.6c4.3,0.83,8.66,3.3,11.22,4.99c0.56,0.37,2.17,1.57,2.17,1.57s1.37-0.88,2.54-1.43
			c1.05-0.49,2-0.81,3.05-0.95c0.9-0.12,2.45-0.23,2.45-0.23l-1.33-2.07c-0.93-1.45-1.61-3.15-2-5.07
			c-0.95-4.58-0.4-9.09,1.51-12.49c0.58,0.54,0.72,1.6,0.85,3.07c0.03,0.3,0.05,0.6,0.09,0.88c0.23,1.9,0.53,3.85,0.91,5.79
			l0.44,2.24l1.71-1.17l2.13,0.17c1.72,0.13,3.43,0.27,5.15,0.42c1.37,0.12,2.4,0.24,3.35,0.39l1.93,0.3l-0.21-1.94
			c-0.54-5.06-0.85-10.79,2.28-15.07c2.49,4.81,5.71,9.18,9.6,13l1.69,1.66l0.83-2.42c0.56-1.66,1.14-3.32,1.73-4.97
			c0.13-0.35,0.25-0.72,0.37-1.1c0.38-1.16,0.77-2.36,1.41-3.17c0.48-0.6,1.31-1.05,2.1-0.71c0.24,0.1,0.79,0.34,0.4,1.98
			c-0.85,3.55-1.82,7.31-2.97,11.5l-1.15,4.17l3.48-2.56c0.76-0.56,1.79-0.99,3.04-1.27c1.53-0.34,3.19-0.49,4.79-0.63
			c0.56-0.05,1.13-0.1,1.68-0.16l3.8-0.39c0.18-0.02,0.37-0.04,0.56-0.07c0.55-0.07,1.23-0.17,1.47-0.04
			c0.04,0.2-0.17,0.8-0.29,1.12l-0.08,0.22c-0.39,1.12-0.8,2.24-1.21,3.35c-0.82,2.18-1.71,4.42-2.67,6.66l-0.48,1.13l1.02,0.69
			c2.49,1.7,4.66,3.78,6.43,6.2l1.36,1.85l1.29-2.22c0.56-0.98,1.1-1.9,1.67-2.63c0.57-0.72,1.08-1.23,1.6-1.61
			c0.27-0.2,1.1-0.81,1.58-0.82c0.02,0,0.04,0,0.06,0C187.01,61.15,187.21,61.77,186.87,63.52z"/>
	</g>
</g>
<g id="Ebene_2">
</g>
</svg>
