<svg id="Layer_1" data-name="Layer 1" xmlns="http://www.w3.org/2000/svg" viewBox="0 0 1424.96 702.12"><defs><style>.cls-1{fill:#fff;}</style></defs><path class="cls-1" d="M1000,648.94c-299.88,0-566.78,192.39-685.19,292.32a76.86,76.86,0,0,0,0,117.48c118.41,99.93,385.31,292.32,685.19,292.32s566.78-192.39,685.19-292.32a76.86,76.86,0,0,0,0-117.48C1566.78,841.33,1299.88,648.94,1000,648.94Zm.33,638.29c-158.65.18-287.75-128.94-287.56-287.58C713,841.8,841.8,713,999.65,712.77c158.64-.19,287.76,128.91,287.58,287.56C1287.05,1158.2,1158.2,1287.05,1000.33,1287.23Z" transform="translate(-287.52 -648.94)"/><path class="cls-1" d="M1000,1191.49a191.49,191.49,0,0,0,0-383,177.06,177.06,0,0,0-30.64,2.55,112.1,112.1,0,0,1,17.87,61.28A114.82,114.82,0,0,1,872.34,987.23a112.1,112.1,0,0,1-61.28-17.87,177.06,177.06,0,0,0-2.55,30.64A191.43,191.43,0,0,0,1000,1191.49Z" transform="translate(-287.52 -648.94)"/></svg>