<?xml version="1.0" encoding="utf-8"?>
<!-- Generator: Adobe Illustrator 25.0.0, SVG Export Plug-In . SVG Version: 6.00 Build 0)  -->
<svg version="1.1" id="Ebene_1" xmlns="http://www.w3.org/2000/svg" xmlns:xlink="http://www.w3.org/1999/xlink" x="0px" y="0px"
	 viewBox="0 0 1000 1000" style="enable-background:new 0 0 1000 1000;" xml:space="preserve">
<style type="text/css">
	.st0{fill:#707070;}
</style>
<g>
	<path class="st0" d="M386.3,352.8c-21.7,0-39.1,0.6-46,1.2v144.1c10.6,0.6,18.6,0.6,39.1,0.6c52.2,0,96.3-17.4,96.3-73.9
		C475.8,379.5,443.5,352.8,386.3,352.8z"/>
	<path class="st0" d="M810.7,0H189.3C84.8,0,0,84.8,0,189.3v621.3C0,915.2,84.8,1000,189.3,1000h621.3
		c104.6,0,189.3-84.8,189.3-189.3V189.3C1000,84.8,915.2,0,810.7,0z M379.5,564.6c-19.9,0-24.8,0-39.1,0v127.3c0,3.1-1.2,5-5,5
		h-65.2c-3.1,0-5-1.2-5-4.3V294.4c0-3.1,1.2-5,4.3-5c23.6-0.6,69.6-1.9,114.9-1.9c120.5,0,165.2,67.1,165.2,135.4
		C549.7,521.7,473.3,564.6,379.5,564.6z M780.1,454.6c0,3.1-1.2,4.3-5.6,4.3c-44.1-1.2-80.8,14.3-95,32.9v200c0,3.7-1.9,5-5.6,5
		h-64.6c-4.3,0-5.6-1.9-5.6-5V477.6c0-26.7-0.6-62.7-3.1-83.2c0-3.1,0.6-3.7,3.7-3.7h58.4c3.7,0,5.6,1.2,6.8,5
		c3.1,8.1,5.6,23.6,6.2,37.3c21.1-26.1,56.5-48.5,99.4-48.5c3.7,0,5,0.6,5,4.3V454.6z"/>
</g>
</svg>
