<?xml version="1.0" encoding="utf-8"?>
<!-- Generator: Adobe Illustrator 25.0.0, SVG Export Plug-In . SVG Version: 6.00 Build 0)  -->
<svg version="1.1" id="Ebene_1" xmlns="http://www.w3.org/2000/svg" xmlns:xlink="http://www.w3.org/1999/xlink" x="0px" y="0px"
	 viewBox="0 0 1000 1000" style="enable-background:new 0 0 1000 1000;" xml:space="preserve">
<style type="text/css">
	.st0{fill:#707070;}
</style>
<g>
	<path class="st0" d="M360.6,352.8c-21.7,0-39.1,0.6-46,1.2v144.1c10.6,0.6,18.6,0.6,39.1,0.6c52.2,0,96.3-17.4,96.3-73.9
		C450,379.5,417.7,352.8,360.6,352.8z"/>
	<path class="st0" d="M810.7,0H189.3C84.8,0,0,84.8,0,189.3v621.3C0,915.2,84.8,1000,189.3,1000h621.3
		c104.6,0,189.3-84.8,189.3-189.3V189.3C1000,84.8,915.2,0,810.7,0z M353.7,564.6c-19.9,0-24.8,0-39.1,0v127.3c0,3.1-1.2,5-5,5
		h-65.2c-3.1,0-5-1.2-5-4.3V294.4c0-3.1,1.2-5,4.3-5c23.6-0.6,69.6-1.9,114.9-1.9c120.5,0,165.2,67.1,165.2,135.4
		C523.9,521.7,447.5,564.6,353.7,564.6z M668,703.1c-36.6,0-68.9-6.8-87.6-17.4c-3.1-1.9-4.3-3.1-4.3-6.8v-59c0-3.1,2.5-4.3,5-3.1
		c26.7,17.4,60.9,24.8,88.8,24.8c32.3,0,47.8-11.2,47.8-27.3c0-15.5-11.8-25.5-50.3-41c-67.7-24.8-91.9-52.8-91.9-97.5
		c0-47.2,38.5-91.3,116.2-91.3c36,0,63.4,5,78.3,12.4c3.1,1.9,3.7,4.3,3.7,7.5V459c0,3.1-1.9,5-5.6,3.7c-19.3-10.6-50.3-18-77.6-18
		c-32.9,0-44.1,13.7-44.1,26.7c0,13.7,9.3,23,49.1,38.5c70.8,26.1,95,54,95,98.1C790.4,666.4,744.4,703.1,668,703.1z"/>
</g>
</svg>
